<?xml version="1.0" encoding="iso-8859-1"?>
<!-- Generator: Adobe Illustrator 18.0.0, SVG Export Plug-In . SVG Version: 6.00 Build 0)  -->
<!DOCTYPE svg PUBLIC "-//W3C//DTD SVG 1.1//EN" "http://www.w3.org/Graphics/SVG/1.1/DTD/svg11.dtd">
<svg version="1.1" id="Capa_1" xmlns="http://www.w3.org/2000/svg" xmlns:xlink="http://www.w3.org/1999/xlink" x="0px" y="0px"
	 viewBox="0 0 376.077 376.077" style="enable-background:new 0 0 376.077 376.077;" xml:space="preserve">
<g>
	<path d="M188.038,208.998c-11.557,0-20.959-9.403-20.959-20.96c0-3.038-2.462-5.5-5.5-5.5s-5.5,2.462-5.5,5.5
		c0,17.623,14.337,31.96,31.959,31.96c3.038,0,5.5-2.462,5.5-5.5S191.076,208.998,188.038,208.998z"/>
	<path d="M219.999,188.038c0-17.623-14.337-31.96-31.96-31.96c-3.038,0-5.5,2.462-5.5,5.5s2.462,5.5,5.5,5.5
		c11.558,0,20.96,9.403,20.96,20.96c0,3.038,2.463,5.5,5.5,5.5S219.999,191.076,219.999,188.038z"/>
	<path d="M188.038,21.931c-91.592,0-166.107,74.516-166.107,166.107s74.516,166.107,166.107,166.107
		c91.592,0,166.108-74.516,166.108-166.107S279.63,21.931,188.038,21.931z M343.038,182.537H238.479
		c-2.556-23.593-21.345-42.383-44.938-44.94V33.039C274.702,35.885,340.193,101.377,343.038,182.537z M188.038,227.783
		c-21.915,0-39.744-17.83-39.744-39.745s17.829-39.745,39.744-39.745c21.916,0,39.745,17.83,39.745,39.745
		S209.954,227.783,188.038,227.783z M182.542,33.039v104.558c-23.596,2.554-42.388,21.345-44.944,44.941H33.039
		C35.883,101.375,101.379,35.881,182.542,33.039z M33.039,193.537h104.558c2.555,23.596,21.348,42.389,44.945,44.943v104.558
		C101.378,340.195,35.882,274.7,33.039,193.537z M193.542,343.037V238.479c23.594-2.557,42.383-21.348,44.938-44.942h104.558
		C340.194,274.698,274.702,340.191,193.542,343.037z"/>
	<path d="M188.038,0C84.354,0,0,84.354,0,188.038c0,103.685,84.354,188.039,188.038,188.039
		c103.685,0,188.039-84.354,188.039-188.039C376.077,84.354,291.723,0,188.038,0z M188.038,365.077
		C90.419,365.077,11,285.658,11,188.038C11,90.419,90.419,11,188.038,11c97.62,0,177.039,79.419,177.039,177.038
		C365.077,285.658,285.658,365.077,188.038,365.077z"/>
	<path d="M121.135,85.996h49.498c3.038,0,5.5-2.462,5.5-5.5s-2.462-5.5-5.5-5.5h-49.498c-3.038,0-5.5,2.462-5.5,5.5
		S118.098,85.996,121.135,85.996z"/>
	<path d="M77.637,102.495h49.498c3.038,0,5.5-2.462,5.5-5.5s-2.462-5.5-5.5-5.5H77.637c-3.038,0-5.5,2.462-5.5,5.5
		S74.6,102.495,77.637,102.495z"/>
	<path d="M278.002,158.492c0,3.038,2.463,5.5,5.5,5.5h26.248c3.037,0,5.5-2.462,5.5-5.5s-2.463-5.5-5.5-5.5h-26.248
		C280.465,152.992,278.002,155.455,278.002,158.492z"/>
	<path d="M260.628,147.493h14.999c3.037,0,5.5-2.462,5.5-5.5s-2.463-5.5-5.5-5.5h-14.999c-3.037,0-5.5,2.462-5.5,5.5
		S257.591,147.493,260.628,147.493z"/>
	<path d="M264.628,266.487c0-3.038-2.463-5.5-5.5-5.5H209.63c-3.037,0-5.5,2.462-5.5,5.5s2.463,5.5,5.5,5.5h49.498
		C262.166,271.987,264.628,269.524,264.628,266.487z"/>
	<path d="M101.636,215.989H52.139c-3.038,0-5.5,2.462-5.5,5.5s2.462,5.5,5.5,5.5h49.498c3.038,0,5.5-2.462,5.5-5.5
		S104.674,215.989,101.636,215.989z"/>
	<path d="M274.127,278.986h-40.498c-3.037,0-5.5,2.462-5.5,5.5s2.463,5.5,5.5,5.5h40.498c3.037,0,5.5-2.462,5.5-5.5
		S277.165,278.986,274.127,278.986z"/>
</g>
<g>
</g>
<g>
</g>
<g>
</g>
<g>
</g>
<g>
</g>
<g>
</g>
<g>
</g>
<g>
</g>
<g>
</g>
<g>
</g>
<g>
</g>
<g>
</g>
<g>
</g>
<g>
</g>
<g>
</g>
</svg>
