<?xml version="1.0" encoding="iso-8859-1"?>
<!-- Generator: Adobe Illustrator 18.0.0, SVG Export Plug-In . SVG Version: 6.00 Build 0)  -->
<!DOCTYPE svg PUBLIC "-//W3C//DTD SVG 1.1//EN" "http://www.w3.org/Graphics/SVG/1.1/DTD/svg11.dtd">
<svg version="1.1" id="Capa_1" xmlns="http://www.w3.org/2000/svg" xmlns:xlink="http://www.w3.org/1999/xlink" x="0px" y="0px"
	 viewBox="0 0 482.198 482.198" style="enable-background:new 0 0 482.198 482.198;" xml:space="preserve">
<g>
	<path d="M476.79,417.298c-12.623-0.209-24.824-4.072-35.284-11.17c-0.201-0.137-0.43-0.269-0.647-0.378
		c-1.705-0.853-3.73-0.757-5.351,0.246c-0.123,0.076-0.242,0.156-0.357,0.241c-8.605,5.801-18.181,9.324-27.968,10.592
		c16.765-19.921,23.023-47.134,15.955-72.704l-2.911-10.565c-1.473-5.328-0.399-10.906,2.948-15.304
		c3.346-4.397,8.435-6.919,13.961-6.919c2.261,0,4.292-1.384,5.119-3.489l5.625-14.316l12.952-3.039
		c2.958-0.694,4.792-3.654,4.098-6.611c-0.694-2.958-3.657-4.793-6.611-4.098l-15.76,3.698l-72.44,17
		c-1.375,0.323-2.573,1.162-3.347,2.344c-19.848,30.344-50.285,51.318-85.706,59.059c-10.369,2.266-20.822,3.313-31.192,3.191
		l-0.122-13.642c6.033-0.678,16.672-2.395,28.181-6.681c23.479-8.744,39.208-24.038,45.49-44.228
		c16.966-54.537-62.508-136.616-75.467-149.526l-0.029-3.26h12.298c2.614,0,4.868-1.84,5.389-4.402l7.363-36.149
		c0.33-1.618-0.085-3.298-1.129-4.577c-1.045-1.279-2.608-2.021-4.26-2.021h-26.368V59.315c0-3.038-2.462-5.5-5.5-5.5h-38.555
		c-1.906,0-3.676,0.987-4.679,2.608c-1.002,1.622-1.093,3.646-0.241,5.351l10,20c0.932,1.863,2.836,3.041,4.919,3.041h23.055v15.772
		h-26.368c-1.651,0-3.215,0.742-4.26,2.021c-1.044,1.279-1.459,2.959-1.129,4.577l7.363,36.149c0.521,2.562,2.775,4.402,5.389,4.402
		h12.262l-0.206,23.265l-59.772,163.505l-12.809-8.048v-17.343c0-14.751-12-26.751-26.751-26.751H43.86
		c-1.655,0-3.221,0.745-4.266,2.028c-1.044,1.283-1.456,2.969-1.119,4.589c0,0,8.879,42.457,9.059,42.841l7.712,79.121
		c-2.893-1.389-5.695-3-8.385-4.825c-1.865-1.265-4.313-1.265-6.177,0c-10.46,7.098-22.658,10.961-35.275,11.171
		c-3.037,0.05-5.458,2.553-5.408,5.59c0.05,3.038,2.595,5.469,5.59,5.408c13.538-0.225,26.661-4.042,38.181-11.078
		c11.894,7.265,25.461,11.087,39.465,11.087c14.008,0,27.573-3.823,39.46-11.088c24.34,14.895,54.583,14.895,78.923,0
		c11.887,7.266,25.453,11.088,39.46,11.088c14.005,0,27.573-3.823,39.468-11.089c24.334,14.896,54.578,14.897,78.921,0.002
		c12.171,7.449,25.817,11.173,39.469,11.172c13.647-0.001,27.299-3.724,39.47-11.169c11.523,7.039,24.652,10.858,38.198,11.083
		c3.009,0.063,5.54-2.37,5.59-5.408C482.248,419.851,479.827,417.349,476.79,417.298z M210.564,73.815l-4.5-9h24.155v9H210.564z
		 M249.643,339.348l-1.464-163.392c14.93,29.208,39.342,84.432,32.551,121.954C275.532,326.634,259.066,336.195,249.643,339.348z
		 M312.918,297.256c-5.968,19.182-21.308,29.959-35.983,35.997c6.201-7.465,11.862-18.152,14.619-33.384
		c6.227-34.409-10.615-80.461-25.397-112.318c5.253,6.356,10.792,13.426,16.173,20.945
		C308.87,245.576,319.447,276.269,312.918,297.256z M210.584,111.587h50.27l-5.123,25.149h-40.025L210.584,111.587z
		 M236.925,147.737l1.942,216.764c-2.108-0.196-4.211-0.442-6.306-0.736l1.915-216.028H236.925z M212.674,307.533h9.385
		l-0.129,14.582h-12.862L212.674,307.533z M222.157,296.533h-6.762l7.014-28.363L222.157,296.533z M217.659,241.549l-7.197-3.476
		l4.628-12.66l5.783,3.138L217.659,241.549z M214.961,252.461l-3.676,14.864l-9.81-4.668l5.191-14.201L214.961,252.461z
		 M208.59,278.224l-3.969,16.052l-12.602-5.751l5.663-15.492L208.59,278.224z M201.934,305.142l-3.6,14.556l-15.039-7.308
		l4.936-13.502L201.934,305.142z M206.348,333.115h15.484l-0.254,28.656c-7.044-1.586-13.969-3.745-20.722-6.448L206.348,333.115z
		 M222.861,217.115l-3.953-2.145l4.071-11.135L222.861,217.115z M179.498,322.775l16.136,7.841l-4.981,20.141
		c-4.122-2.052-8.165-4.316-12.113-6.798l-5.519-3.468L179.498,322.775z M123.938,293.364c8.685,0,15.751,7.066,15.751,15.751
		v14.877H56.972l-6.354-30.629H123.938z M58.895,334.993h3.153l18.025,79.008c0.252,1.103,0.558,2.186,0.898,3.255
		c-4.851-0.168-9.628-0.873-14.262-2.095L58.895,334.993z M356.379,406.119c-22.097,15-50.646,15-72.733,0.001
		c-1.822-1.238-4.363-1.238-6.188-0.001c-10.778,7.313-23.356,11.179-36.377,11.179c-13.023,0-25.598-3.865-36.367-11.178
		c-1.822-1.238-4.365-1.238-6.188-0.001c-22.093,14.997-50.642,14.997-72.734,0c-1.823-1.237-4.365-1.237-6.188,0.001
		c-8.194,5.564-17.436,9.126-27.124,10.514c-0.705-1.627-1.281-3.32-1.683-5.082L73.33,334.996h70.27l29.087,18.276
		c33.148,20.843,72.472,27.718,110.727,19.358c37.531-8.202,69.883-30.163,91.336-61.937l60.11-14.106l-1.573,4.003
		c-7.478,0.996-14.209,4.884-18.867,11.004c-5.445,7.156-7.193,16.23-4.797,24.893l2.911,10.564
		c7.001,25.326-1.163,52.521-20.807,69.912c-10.165-1.15-20.129-4.736-29.046-10.763
		C360.864,404.901,358.247,404.85,356.379,406.119z"/>
	<path d="M63.164,313.815h8c3.038,0,5.5-2.462,5.5-5.5s-2.462-5.5-5.5-5.5h-8c-3.038,0-5.5,2.462-5.5,5.5
		S60.127,313.815,63.164,313.815z"/>
	<path d="M88.664,313.815h8c3.038,0,5.5-2.462,5.5-5.5s-2.462-5.5-5.5-5.5h-8c-3.038,0-5.5,2.462-5.5,5.5
		S85.627,313.815,88.664,313.815z"/>
	<path d="M114.164,313.815h8c3.038,0,5.5-2.462,5.5-5.5s-2.462-5.5-5.5-5.5h-8c-3.038,0-5.5,2.462-5.5,5.5
		S111.127,313.815,114.164,313.815z"/>
	<path d="M95.08,340.815h-6.916c-3.038,0-5.5,2.462-5.5,5.5s2.462,5.5,5.5,5.5h6.916c3.038,0,5.5-2.462,5.5-5.5
		S98.117,340.815,95.08,340.815z"/>
	<path d="M117.122,340.815h-6.915c-3.038,0-5.5,2.462-5.5,5.5s2.462,5.5,5.5,5.5h6.915c3.038,0,5.5-2.462,5.5-5.5
		S120.159,340.815,117.122,340.815z"/>
	<path d="M139.164,340.815h-6.915c-3.038,0-5.5,2.462-5.5,5.5s2.462,5.5,5.5,5.5h6.915c3.038,0,5.5-2.462,5.5-5.5
		S142.202,340.815,139.164,340.815z"/>
	<path d="M399.664,343.315c0-10.201-8.299-18.5-18.5-18.5s-18.5,8.299-18.5,18.5s8.299,18.5,18.5,18.5
		S399.664,353.517,399.664,343.315z M373.664,343.315c0-4.136,3.364-7.5,7.5-7.5s7.5,3.364,7.5,7.5s-3.364,7.5-7.5,7.5
		S373.664,347.451,373.664,343.315z"/>
</g>
<g>
</g>
<g>
</g>
<g>
</g>
<g>
</g>
<g>
</g>
<g>
</g>
<g>
</g>
<g>
</g>
<g>
</g>
<g>
</g>
<g>
</g>
<g>
</g>
<g>
</g>
<g>
</g>
<g>
</g>
</svg>
