<?xml version="1.0" encoding="iso-8859-1"?>
<!-- Generator: Adobe Illustrator 18.0.0, SVG Export Plug-In . SVG Version: 6.00 Build 0)  -->
<!DOCTYPE svg PUBLIC "-//W3C//DTD SVG 1.1//EN" "http://www.w3.org/Graphics/SVG/1.1/DTD/svg11.dtd">
<svg version="1.1" id="Capa_1" xmlns="http://www.w3.org/2000/svg" xmlns:xlink="http://www.w3.org/1999/xlink" x="0px" y="0px"
	 viewBox="0 0 412.482 412.482" style="enable-background:new 0 0 412.482 412.482;" xml:space="preserve">
<g>
	<path d="M333.892,107.535l52.974-57.049c1.489-1.603,1.886-3.936,1.011-5.941s-2.854-3.302-5.042-3.302H262.417V5.5
		c0-3.038-2.462-5.5-5.5-5.5H29.647c-3.038,0-5.5,2.462-5.5,5.5v401.482c0,3.038,2.462,5.5,5.5,5.5h18.854
		c3.038,0,5.5-2.462,5.5-5.5V132.576h114.922v35.75c0,3.038,2.462,5.5,5.5,5.5h208.412c2.188,0,4.167-1.296,5.042-3.302
		s0.478-4.338-1.011-5.941L333.892,107.535z M328.641,52.244l-47.867,51.549c-1.959,2.11-1.959,5.375,0,7.485l47.866,51.549H197.72
		l61.655-30.835c1.802-0.903,3.042-2.762,3.042-4.915V52.244H328.641z M43.001,401.482h-7.854V11h7.854V401.482z M54.001,11h197.416
		v110.576H54.001V11z M233.62,132.576l-53.697,26.85v-26.85H233.62z M343.652,162.826l-51.342-55.291l51.342-55.291h26.571
		l-47.866,51.549c-1.959,2.11-1.959,5.375,0,7.485l47.866,51.549H343.652z"/>
	<path d="M196.05,95.264c3.038,0,5.5-2.462,5.5-5.5V42.812c0-2.19-1.299-4.171-3.308-5.044c-2.006-0.873-4.343-0.471-5.945,1.023
		l-17.918,16.723l-17.917-16.723c-2.113-1.972-5.393-1.972-7.506,0l-17.917,16.723l-17.917-16.723
		c-1.601-1.494-3.938-1.896-5.945-1.024c-2.009,0.873-3.308,2.854-3.308,5.044v46.953c0,3.038,2.462,5.5,5.5,5.5H196.05z
		 M114.868,55.469l12.417,11.59c2.113,1.972,5.393,1.972,7.506,0l17.917-16.723l17.917,16.723c2.113,1.973,5.393,1.972,7.506,0
		l12.418-11.59v28.796h-75.682V55.469z"/>
</g>
<g>
</g>
<g>
</g>
<g>
</g>
<g>
</g>
<g>
</g>
<g>
</g>
<g>
</g>
<g>
</g>
<g>
</g>
<g>
</g>
<g>
</g>
<g>
</g>
<g>
</g>
<g>
</g>
<g>
</g>
</svg>
